#!OML:ASF H:\Terrain\Patient Classification 1\Walking\liu\liu.ASF
:FULLY-SPECIFIED
:DEGREES
453
root 10.788300 17.467800 27.643000 5.336990 1.157490 2.237420
lowerback -2.875075 -0.669340 -1.454695
upperback -0.619410 -0.819785 0.674995
thorax 1.033755 -0.418448 1.451000
lowerneck -10.606400 -2.028105 -5.864550
upperneck 12.114400 -2.370090 5.264600
head 6.018600 -0.939500 2.593085
rclavicle -0.000000 0.000000
rhumerus -22.359400 5.311450 -44.105099
rradius 17.198200
rwrist -6.623000
rhand -14.844500 -16.749701
rfingers 3.562510
rthumb -1.508535 -31.728901
lclavicle -0.000000 0.000000
lhumerus -12.324500 -6.505150 44.842548
lradius 10.456250
lwrist -2.070205
lhand -5.541150 -11.632200
lfingers 3.562510
lthumb 7.470600 3.088335
rfemur -10.121100 -1.241030 8.640950
rtibia 32.397999
rfoot -5.039450 -4.083660
rtoes -8.786200
lfemur -9.427550 1.789280 -14.188050
ltibia 13.099700
lfoot -6.409000 2.260300
ltoes 0.208118
454
root 10.796300 17.474100 27.758801 5.228100 1.318220 1.957050
lowerback -2.772020 -0.780770 -1.372745
upperback -0.622690 -0.977975 0.775355
thorax 0.985140 -0.496468 1.498750
lowerneck -10.611600 -1.911455 -5.842300
upperneck 12.083900 -2.222710 5.316300
head 5.987900 -0.864460 2.633200
rclavicle 0.000000 0.000000
rhumerus -22.410749 5.411750 -44.033100
rradius 17.331200
rwrist -6.800350
rhand -15.507700 -15.519000
rfingers 3.562510
rthumb -2.149020 -30.487200
lclavicle 0.000000 0.000000
lhumerus -11.919750 -6.640550 44.744801
lradius 10.569750
lwrist -2.051355
lhand -5.741850 -11.756350
lfingers 3.562510
lthumb 7.277250 2.978360
rfemur -10.614550 -1.101020 8.834950
rtibia 32.180450
rfoot -5.500300 -4.191240
rtoes -8.565550
lfemur -9.161150 1.762200 -14.014750
ltibia 13.080200
lfoot -6.522950 2.207470
ltoes 0.617290
455
root 10.805100 17.464300 27.869301 5.299700 1.396050 1.793900
lowerback -2.735715 -0.852105 -1.286990
upperback -0.678860 -1.079720 0.820750
thorax 0.913085 -0.545145 1.491530
lowerneck -10.542850 -1.751155 -5.592500
upperneck 12.174850 -2.018760 5.057450
head 5.968650 -0.784330 2.525505
rclavicle -0.000000 -0.000000
rhumerus -22.610451 5.405800 -43.973549
rradius 17.593149
rwrist -6.936650
rhand -15.767100 -14.816550
rfingers 3.562510
rthumb -2.399485 -29.779350
lclavicle -0.000000 -0.000000
lhumerus -11.572900 -6.908600 44.654949
lradius 10.692050
lwrist -1.943795
lhand -5.973050 -11.870950
lfingers 3.562510
lthumb 7.054500 2.879545
rfemur -11.250000 -0.931680 8.954700
rtibia 31.963850
rfoot -5.984000 -4.305245
rtoes -8.626050
lfemur -9.009650 1.794060 -13.940250
ltibia 13.232650
lfoot -6.810800 2.186610
ltoes 0.341401
456
root 10.811600 17.442200 27.980000 5.132110 1.516430 1.801190
lowerback -2.629685 -0.935125 -1.319005
upperback -0.640130 -1.191435 0.844445
thorax 0.904095 -0.601575 1.528215
lowerneck -11.059700 -1.870615 -5.439900
upperneck 12.565150 -2.175420 4.922430
head 6.238550 -0.848970 2.438700
rclavicle -0.000000 0.000000
rhumerus -22.664150 5.510800 -44.022549
rradius 17.768351
rwrist -7.252150
rhand -15.854600 -14.986450
rfingers 3.562510
rthumb -2.483950 -29.947300
lclavicle -0.000000 0.000000
lhumerus -11.130550 -7.356300 44.546150
lradius 10.839350
lwrist -1.630260
lhand -6.100150 -11.959400
lfingers 3.562510
lthumb 6.932000 2.799575
rfemur -11.713650 -0.785085 8.973300
rtibia 31.737650
rfoot -6.578050 -4.319890
rtoes -8.976850
lfemur -8.701850 1.825270 -13.943950
ltibia 13.331450
lfoot -7.151700 2.197410
ltoes 0.330619
457
root 10.816600 17.415701 28.086700 4.791620 1.706040 1.751970
lowerback -2.420020 -1.030040 -1.346820
upperback -0.580855 -1.322230 0.896170
thorax 0.861360 -0.667440 1.593765
lowerneck -10.726050 -1.703260 -5.531350
upperneck 12.244050 -2.001975 5.210800
head 6.031600 -0.748090 2.582395
rclavicle -0.000000 -0.000000
rhumerus -22.680750 5.592900 -43.992699
rradius 17.971350
rwrist -7.653550
rhand -15.655400 -15.285250
rfingers 3.562510
rthumb -2.291635 -30.250450
lclavicle -0.000000 -0.000000
lhumerus -10.739350 -7.926100 44.478802
lradius 11.045250
lwrist -1.120090
lhand -6.338900 -12.031700
lfingers 3.562510
lthumb 6.701900 2.742705
rfemur -12.082550 -0.682575 9.018450
rtibia 31.515699
rfoot -7.184700 -4.276295
rtoes -8.801450
lfemur -8.284650 1.798885 -13.892350
ltibia 13.297200
lfoot -7.352900 2.236760
ltoes 0.763450
458
root 10.823900 17.397600 28.197399 4.676590 1.830380 1.937830
lowerback -2.340640 -1.103890 -1.439315
upperback -0.577670 -1.418065 0.897850
thorax 0.832120 -0.715355 1.643755
lowerneck -10.825750 -1.537095 -5.173850
upperneck 12.470350 -1.783480 4.833005
head 6.094750 -0.663900 2.418600
rclavicle 0.000000 0.000000
rhumerus -22.790400 5.426950 -43.764549
rradius 18.271799
rwrist -7.729900
rhand -15.047750 -15.658850
rfingers 3.562510
rthumb -1.704850 -30.635099
lclavicle 0.000000 0.000000
lhumerus -10.462750 -8.235850 44.406052
lradius 11.289250
lwrist -0.760875
lhand -6.424750 -11.914150
lfingers 3.562510
lthumb 6.619100 2.865655
rfemur -12.575950 -0.636935 8.916800
rtibia 31.243549
rfoot -7.545350 -4.283355
rtoes -7.771650
lfemur -7.971550 1.795615 -13.983800
ltibia 13.246800
lfoot -7.455450 2.231025
ltoes 1.073690
459
root 10.838000 17.383400 28.329901 4.416360 2.035230 2.558570
lowerback -2.516130 -1.182915 -1.669460
upperback -0.332776 -1.503380 0.765735
thorax 1.194120 -0.768760 1.617715
lowerneck -11.011150 -1.611960 -5.360200
upperneck 12.347550 -1.911435 5.219250
head 6.112850 -0.684165 2.578350
rclavicle 0.000000 0.000000
rhumerus -22.577299 5.134600 -43.587101
rradius 18.403450
rwrist -7.606900
rhand -15.018050 -15.033750
rfingers 3.562510
rthumb -1.676150 -30.010450
lclavicle 0.000000 0.000000
lhumerus -9.824650 -8.376900 44.126900
lradius 11.510750
lwrist -0.628335
lhand -6.351250 -11.762750
lfingers 3.562510
lthumb 6.690000 3.012455
rfemur -12.891850 -0.722170 8.516550
rtibia 30.893950
rfoot -7.729450 -4.178110
rtoes -7.705800
lfemur -7.539050 1.824795 -14.325600
ltibia 13.262050
lfoot -7.709150 2.078595
ltoes 1.395380
460
root 10.843500 17.386101 28.452900 4.355490 2.495070 2.602150
lowerback -3.338665 -1.262825 -1.651745
upperback 0.369480 -1.580910 0.700035
thorax 2.387100 -0.836095 1.482630
lowerneck -11.540850 -1.734390 -5.292850
upperneck 11.931500 -2.041675 5.274450
head 6.072950 -0.712630 2.552200
rclavicle 0.000000 0.000000
rhumerus -21.506451 4.933630 -43.477798
rradius 18.342550
rwrist -7.882050
rhand -15.377400 -14.320350
rfingers 3.562510
rthumb -2.023200 -29.291000
lclavicle 0.000000 0.000000
lhumerus -8.252200 -8.881750 43.601250
lradius 11.653550
lwrist -0.258828
lhand -6.414050 -11.775600
lfingers 3.562510
lthumb 6.629450 3.003565
rfemur -13.272150 -0.754890 8.477750
rtibia 30.434200
rfoot -8.032600 -4.147620
rtoes -8.897400
lfemur -7.228700 1.701405 -14.330300
ltibia 13.220250
lfoot -7.933950 1.935305
ltoes 1.618470
461
root 10.842700 17.391100 28.559000 4.622140 2.873310 2.497620
lowerback -2.733355 -1.379835 -1.681910
upperback -0.247597 -1.760425 0.842760
thorax 1.430590 -0.902915 1.671230
lowerneck -10.909100 -1.565015 -5.217400
upperneck 12.266850 -1.803915 4.893270
head 6.036700 -0.665825 2.438400
rclavicle -0.000000 0.000000
rhumerus -22.571301 5.247850 -43.536449
rradius 18.574450
rwrist -8.494100
rhand -15.839750 -13.859850
rfingers 3.562510
rthumb -2.469615 -28.821051
lclavicle -0.000000 0.000000
lhumerus -8.877900 -8.874350 43.877602
lradius 11.885950
lwrist -0.047018
lhand -6.553050 -11.911100
lfingers 3.562510
lthumb 6.495500 2.876690
rfemur -13.852950 -0.653390 8.555650
rtibia 29.904751
rfoot -8.362600 -4.254175
rtoes -9.474150
lfemur -7.213800 1.538360 -14.243250
ltibia 13.202750
lfoot -8.039700 1.891710
ltoes 1.763515
462
root 10.852500 17.386101 28.675699 4.610580 3.013970 2.986440
lowerback -2.375885 -1.461720 -1.891665
upperback -0.516465 -1.870090 0.805790
thorax 0.973120 -0.946700 1.766830
lowerneck -10.684800 -1.551150 -5.383700
upperneck 12.437750 -1.799015 5.023650
head 6.064100 -0.669990 2.524920
rclavicle -0.000000 -0.000000
rhumerus -23.139750 5.297500 -43.556400
rradius 18.799549
rwrist -8.931050
rhand -16.384300 -12.887400
rfingers 3.562510
rthumb -2.995420 -27.835051
lclavicle -0.000000 -0.000000
lhumerus -9.004550 -9.018100 43.880199
lradius 12.100000
lwrist 0.272676
lhand -6.630750 -11.977150
lfingers 3.562510
lthumb 6.420550 2.815375
rfemur -14.262800 -0.592545 8.238500
rtibia 29.356501
rfoot -8.590800 -4.225710
rtoes -9.285550
lfemur -7.016400 1.521565 -14.501500
ltibia 13.263250
lfoot -8.268800 1.889075
ltoes 1.903725
463
root 10.864300 17.389601 28.794399 4.467450 3.106200 2.772060
lowerback -2.364415 -1.529430 -1.777620
upperback -0.431564 -1.967080 0.854005
thorax 1.058935 -0.997710 1.743330
lowerneck -10.707650 -1.467275 -5.369150
upperneck 12.384900 -1.688925 5.062000
head 6.033900 -0.613295 2.553585
rclavicle 0.000000 0.000000
rhumerus -23.157150 5.336000 -43.536350
rradius 19.021601
rwrist -9.128050
rhand -17.468651 -11.480800
rfingers 3.562510
rthumb -4.042150 -26.393499
lclavicle 0.000000 0.000000
lhumerus -8.600700 -9.128650 43.651951
lradius 12.374900
lwrist 0.543840
lhand -6.683450 -11.999200
lfingers 3.562510
lthumb 6.369750 2.796495
rfemur -14.599350 -0.441599 8.313350
rtibia 28.794350
rfoot -8.824150 -4.241285
rtoes -8.770400
lfemur -6.656900 1.495365 -14.370150
ltibia 13.217650
lfoot -8.544650 1.901325
ltoes 2.297585
464
root 10.870700 17.400999 28.906000 4.499360 3.233180 2.125970
lowerback -2.699915 -1.585880 -1.458900
upperback -0.148184 -2.052800 0.943535
thorax 1.531315 -1.049665 1.623080
lowerneck -11.065500 -1.549815 -5.400050
upperneck 12.239100 -1.789680 5.202450
head 6.065400 -0.633815 2.594535
rclavicle 0.000000 -0.000000
rhumerus -22.758249 5.366600 -43.502300
rradius 19.111851
rwrist -9.297150
rhand -18.345751 -10.490900
rfingers 3.562510
rthumb -4.888495 -25.367451
lclavicle 0.000000 -0.000000
lhumerus -7.832500 -9.245450 43.312500
lradius 12.616050
lwrist 0.835640
lhand -6.795600 -12.039550
lfingers 3.562510
lthumb 6.261650 2.762785
rfemur -15.039500 -0.201673 8.653150
rtibia 28.223450
rfoot -9.049850 -4.426405
rtoes -7.800750
lfemur -6.363550 1.411990 -13.990100
ltibia 13.020100
lfoot -8.671050 1.883020
ltoes 2.511275
465
root 10.871300 17.392700 29.019199 4.496220 3.412660 2.383480
lowerback -3.061075 -1.664495 -1.560360
upperback 0.189568 -2.138610 0.843120
thorax 2.091385 -1.105795 1.536195
lowerneck -11.415900 -1.555630 -5.083200
upperneck 12.136650 -1.821445 5.034450
head 6.088950 -0.630285 2.466605
rclavicle -0.000000 0.000000
rhumerus -22.220551 5.215850 -43.506001
rradius 19.047649
rwrist -9.408750
rhand -17.228300 -11.730150
rfingers 3.562510
rthumb -3.810135 -26.651501
lclavicle -0.000000 0.000000
lhumerus -6.961650 -9.366800 42.863800
lradius 12.788150
lwrist 1.140355
lhand -6.955200 -12.138000
lfingers 3.562510
lthumb 6.107750 2.673625
rfemur -15.458050 -0.057013 8.481850
rtibia 27.640301
rfoot -9.170650 -4.607610
rtoes -7.270000
lfemur -6.004350 1.445215 -14.110550
ltibia 12.824950
lfoot -8.724150 1.813140
ltoes 1.928295
